<?xml version="1.0" encoding="utf-8"?>
<!-- Generator: Adobe Illustrator 25.0.0, SVG Export Plug-In . SVG Version: 6.00 Build 0)  -->
<svg version="1.1" id="Layer_1" xmlns="http://www.w3.org/2000/svg" xmlns:xlink="http://www.w3.org/1999/xlink" x="0px" y="0px"
	 viewBox="0 0 124.5 80" style="enable-background:new 0 0 124.5 80;" xml:space="preserve">
<style type="text/css">
	.st0{fill:none;stroke:#FFFFFF;stroke-width:8;stroke-miterlimit:10;}
</style>
<path class="st0" d="M48.5,40c0-11,5.1-21.5,13.8-28.3C46.6-0.6,24,2.1,11.7,17.8S2.1,56,17.8,68.3c13.1,10.3,31.4,10.3,44.5,0
	C53.6,61.5,48.5,51.1,48.5,40z"/>
<path class="st0" d="M120.5,40c0,19.9-16.1,36-36,36c-8.1,0-15.9-2.7-22.2-7.7c15.6-12.3,18.3-34.9,6-50.5c-1.8-2.3-3.8-4.3-6.1-6.1
	c15.6-12.3,38.3-9.6,50.6,6.1C117.8,24.1,120.5,31.9,120.5,40L120.5,40z"/>
</svg>
