<?xml version="1.0" encoding="utf-8"?>
<!-- Generator: Adobe Illustrator 22.0.0, SVG Export Plug-In . SVG Version: 6.00 Build 0)  -->
<svg version="1.1" id="Layer_1" xmlns="http://www.w3.org/2000/svg" xmlns:xlink="http://www.w3.org/1999/xlink" x="0px" y="0px"
	 viewBox="0 0 396.1 128.2" style="enable-background:new 0 0 396.1 128.2;" xml:space="preserve">
<style type="text/css">
	.st0{fill:#FFFFFF;}
</style>
<g>
	<path class="st0" d="M370.2,2.3h-24.8c-7.7,0-13.5,2.2-16.8,10.3l-47.7,113.8h33.7c0,0,5.5-15.3,6.7-18.6h41.2
		c1,4.4,3.8,18.6,3.8,18.6h29.7L370.2,2.3z M330.6,82.4c2.6-7.1,12.8-34.7,12.8-34.7c-0.2,0.2,2.6-7.3,4.2-11.9l2.2,10.7
		c0,0,6.1,29.7,7.4,35.9L330.6,82.4L330.6,82.4z"/>
	<path class="st0" d="M112.8,2.3L81.4,87l-3.4-17.2l-11.2-57C64.9,4.9,59.3,2.6,52.2,2.3H0.6L0,4.8C12.6,8,23.9,12.6,33.7,18.4
		l28.6,107.8h33.9L146.7,2.3L112.8,2.3L112.8,2.3z"/>
	<polygon class="st0" points="159.6,2.3 139.6,126.4 171.6,126.4 191.7,2.3 	"/>
	<path class="st0" d="M256.4,52.1c-11.3-5.7-18.1-9.5-18.1-15.3c0.2-5.3,5.8-10.7,18.4-10.7c10.5-0.2,18.1,2.2,23.9,4.7l2.9,1.4
		l4.4-26.8C281.6,2.8,271.5,0,259.1,0c-31.7,0-54,16.9-54.1,41c-0.2,17.8,16,27.7,28.1,33.7c12.4,6.1,16.6,10.1,16.6,15.4
		c-0.2,8.3-10.1,12.1-19.2,12.1c-12.8,0-19.6-2-30.1-6.6l-4.2-2l-4.5,27.9c7.5,3.4,21.4,6.5,35.8,6.6c33.7,0.1,55.7-16.6,55.9-42.3
		C283.5,71.7,274.9,60.9,256.4,52.1z"/>
</g>
</svg>
